# xmcd CD database file
#
# Track frame offsets:
#	150
#	16074
#	29346
#	44275
#	59962
#	74702
#	88257
#	100474
#	114011
#	127519
#	140198
#	154795
#	169206
#	182099
#	192410
#	205089
#	217982
#	228435
#
# Disc length: 3214 seconds
#
# Revision: 0
# Processed by: cddbd v1.5.1PL0 Copyright (c) Steve Scherf et al.
# Submitted via: CDex 1.51
#
DISCID=050c8c12
DTITLE=Jelly Roll Morton - Quadromania Jazz [CD 3)
DYEAR=2005
DGENRE=Jazz
TTITLE0=Harmony Blues
TTITLE1=Ponchatrain
TTITLE2=Fussy Mabel
TTITLE3=When They Get Lovin' They's Gone
TTITLE4=You Done Played Out Blues
TTITLE5=Load Of Coal
TTITLE6=Oil Well
TTITLE7=Blue Blood Blues
TTITLE8=Oh, Didn't He Ramble?
TTITLE9=High Society
TTITLE10=Thought I Heard Buddy Bolden Say
TTITLE11=Winnin' Boy Blues
TTITLE12=West End Blues
TTITLE13=Ballin' The Jack
TTITLE14=Original Rags
TTITLE15=King Porter Stomp
TTITLE16=Sporting House Rag (Perfect Rag)
TTITLE17=The Naked Dance
EXTD=YEAR: 2005
EXTT0=
EXTT1=
EXTT2=
EXTT3=
EXTT4=
EXTT5=
EXTT6=
EXTT7=
EXTT8=
EXTT9=
EXTT10=
EXTT11=
EXTT12=
EXTT13=
EXTT14=
EXTT15=
EXTT16=
EXTT17=
PLAYORDER=
